<svg id="Layer_1" data-name="Layer 1" xmlns="http://www.w3.org/2000/svg" viewBox="0 0 415.5 415.4"><defs><style>.cls-1{fill:#dbf0ef;}.cls-2{fill:#f15b30;}.cls-3{fill:#fdbd1a;}</style></defs><path d="M415.5,207.7C415.5,93.2,322.3,0,207.7,0S0,93.2,0,207.7a205.25,205.25,0,0,0,23.2,95.4c0,.1,0,.2.1.2a207.27,207.27,0,0,0,138.5,107h.1a209.1,209.1,0,0,0,91.8,0h.1a207.2,207.2,0,0,0,138.5-107c0-.1,0-.2.1-.2A206.38,206.38,0,0,0,415.5,207.7ZM207.7,18c104.7,0,189.8,85.1,189.8,189.7A186.83,186.83,0,0,1,384,278.1L305.2,116h0c-.2-.6-.5-1.1-.6-1.4A58.64,58.64,0,0,0,291.8,98c-21.5-19.4-61-20.5-84.1-2.4-22.5-17.7-58-18.1-80.9-.4l-1.6,1.2c-.1.1-1.6,1.3-1.7,1.4a57.24,57.24,0,0,0-12.9,16.8l-1.3,2.6-.1.1-78,160.8a188.67,188.67,0,0,1-13.5-70.3C17.9,103.1,103.1,18,207.7,18Zm.1,208.1-72.2-63.3c-11.5-10.4-15.2-25-9.9-38.1l1.1-2.2a38.74,38.74,0,0,1,8.1-10.9l2.8-2.2a43.38,43.38,0,0,1,6.8-4.3,18.61,18.61,0,0,1,2.5-1,43.42,43.42,0,0,1,5-2c1-.3,2.1-.5,3.1-.7a39.38,39.38,0,0,1,4.7-1c1.1-.2,2.3-.2,3.4-.3a35.4,35.4,0,0,1,4.6-.2,38.84,38.84,0,0,1,4.8.4c1.2.1,2.4.2,3.6.4a39.16,39.16,0,0,1,4.9,1.3,29.88,29.88,0,0,1,3.2.9,45.22,45.22,0,0,1,5,2.3c.8.4,1.7.7,2.5,1.2a45.39,45.39,0,0,1,6.7,4.8l3.3,2.9h0l6,5.3,6-5.3h0l3.3-2.9c16.1-14.3,46.9-14.3,62.8.1a41.56,41.56,0,0,1,9.3,12.4c6.2,13.4,2.7,28.4-9.2,39.1l-40.3,35.4ZM41.2,298.9l38.4-79.1,30.2-62.3c.2.5.6.9.8,1.4a57.47,57.47,0,0,0,4.2,7.1,19.52,19.52,0,0,0,1.7,2.3,53.55,53.55,0,0,0,7.2,7.9l73.1,64.1-36,137.3-3.4,13.1A188.69,188.69,0,0,1,41.2,298.9Zm133.7,95.8,32.9-125.6,32.9,125.6A196.42,196.42,0,0,1,174.9,394.7Zm83.2-4L245.4,342,218.8,240.6l.6-.9,31.7-27.8,40.6-35.7.1-.1a66,66,0,0,0,7.2-7.9,18.82,18.82,0,0,0,1.6-2.3,50.68,50.68,0,0,0,4.3-7.4,8.79,8.79,0,0,0,.6-1l68.7,141.4A188.76,188.76,0,0,1,258.1,390.7Z"/><path class="cls-1" d="M207.7,18C103,18,17.9,103.1,17.9,207.7A186,186,0,0,0,31.4,278l78-160.8.1-.1,1.3-2.6a54,54,0,0,1,12.9-16.8c.1-.1,1.6-1.3,1.7-1.4l1.6-1.2c22.9-17.7,58.4-17.4,80.9.4,23.1-18.1,62.5-17,84.1,2.4a58.64,58.64,0,0,1,12.8,16.6c.1.3.4.8.6,1.4h0l78.7,162.2a188.8,188.8,0,0,0,13.5-70.4C397.6,103.1,312.4,18,207.7,18Z"/><path class="cls-2" d="M239.5,198.2l40.3-35.4c11.9-10.7,15.5-25.7,9.2-39.1a38.47,38.47,0,0,0-9.3-12.4c-15.9-14.4-46.7-14.4-62.8-.1l-3.3,2.9h0l-6,5.3-6-5.3h0l-3.3-2.9a45.39,45.39,0,0,0-6.7-4.8c-.8-.5-1.7-.8-2.5-1.2a45.22,45.22,0,0,0-5-2.3,29.88,29.88,0,0,0-3.2-.9,39.16,39.16,0,0,0-4.9-1.3c-1.2-.2-2.4-.3-3.6-.4a38.84,38.84,0,0,0-4.8-.4c-1.5,0-3.1.1-4.6.2-1.1.1-2.3.1-3.4.3a35.6,35.6,0,0,0-4.7,1c-1,.3-2.1.4-3.1.7a52.09,52.09,0,0,0-5,2c-.8.4-1.7.6-2.5,1a37.12,37.12,0,0,0-6.8,4.3l-2.8,2.2a35.67,35.67,0,0,0-8.1,10.9l-1.1,2.2c-5.4,13.1-1.6,27.7,9.9,38.1l72.2,63.3Z"/><path class="cls-1" d="M207.7,269.1,174.8,394.7a191.32,191.32,0,0,0,65.8,0Z"/><path class="cls-3" d="M157.3,390.7l3.4-13.1,36-137.3-73.1-64.1a66,66,0,0,1-7.2-7.9c-.6-.8-1.1-1.5-1.7-2.3a50.93,50.93,0,0,1-4.2-7.1c-.2-.5-.6-.9-.8-1.4L79.6,219.8,41.2,298.9A188.76,188.76,0,0,0,157.3,390.7Z"/><path class="cls-3" d="M374.3,298.9,305.6,157.5c-.2.3-.4.7-.6,1a61.71,61.71,0,0,1-4.3,7.4c-.5.8-1,1.5-1.6,2.3a53.55,53.55,0,0,1-7.2,7.9l-.1.1-40.7,35.7-31.7,27.8-.6.9L245.4,342l12.7,48.7A189.22,189.22,0,0,0,374.3,298.9Z"/></svg>